# xmcd
#
# Track frame offsets:
# 150
# 24973
# 49316
# 68316
# 89477
# 114378
# 135672
# 164946
# 183674
# 203536
# 218808
# 239301
# 261101
# 282801
# 300792
# 325846
#
# Disc length: 4731 seconds
#
# Revision: 0
# Processed by: cddbd v1.4PL0 Copyright (c) Steve Scherf et al.
# Submitted via: Audion 2.5.0 (http://www.panic.com/audion/)
#
DISCID=db127910
DTITLE=Utada Hikaru - selection
DYEAR=1900
DGENRE=
TTITLE0=addicted to you
TTITLE1=another chance
TTITLE2=can you keep a secret?
TTITLE3=close to you
TTITLE4=distance
TTITLE5=eternally
TTITLE6=final distance ( unplugged)
TTITLE7=first love piano version
TTITLE8=first love (strings remix version)
TTITLE9=fly me to the moon
TTITLE10=for you
TTITLE11=tokyo love story
TTITLE12=wait and see
TTITLE13=never let go
TTITLE14=automatic (unplugged)
TTITLE15=give me a reason (live)
EXTD=
EXTT0=
EXTT1=
EXTT2=
EXTT3=
EXTT4=
EXTT5=
EXTT6=
EXTT7=
EXTT8=
EXTT9=
EXTT10=
EXTT11=
EXTT12=
EXTT13=
EXTT14=
EXTT15=
PLAYORDER=
